<svg xmlns="http://www.w3.org/2000/svg" width="64" height="64" viewBox="0 0 64 64" role="img" aria-label="Fire icon">
  <defs>
    <linearGradient id="fireGradient" x1="0%" y1="0%" x2="100%" y2="100%">
      <stop offset="0%" stop-color="#7C3AED" />
      <stop offset="100%" stop-color="#06B6D4" />
    </linearGradient>
  </defs>
  <path d="M32 6c2 6 1 9-2 14 6-2 11-7 12-13 8 7 12 16 9 24-3 9-11 13-19 13s-16-4-19-13c-3-8 1-17 9-24-1 6 2 11 6 13-3-5-4-8-2-14z" fill="url(#fireGradient)" />
  <path d="M32 54c-8 0-15-5-17-12 1 0 2 1 3 1 5 0 9-4 9-9 0-3-2-7-5-9 3-1 6-2 9-1 6 1 10 6 10 12 0 5-4 9-9 9 2 4 6 6 10 6 1 0 2 0 3-1-2 3-6 4-13 4z" fill="rgba(15,17,21,0.2)" />
</svg>
